<svg width="900" height="720" viewBox="0 0 900 720" fill="none" xmlns="http://www.w3.org/2000/svg">
  <rect width="900" height="720" fill="#F5EFE6"/>
  <rect y="448" width="900" height="272" fill="#B88E68"/>
  <g stroke="#A57B56" stroke-width="4">
    <path d="M0 498H900"/>
    <path d="M0 560H900"/>
    <path d="M0 622H900"/>
    <path d="M120 448L40 720"/>
    <path d="M280 448L200 720"/>
    <path d="M440 448L360 720"/>
    <path d="M600 448L520 720"/>
    <path d="M760 448L680 720"/>
  </g>
  <rect x="118" y="96" width="664" height="22" rx="11" fill="#C8A47E"/>
  <rect x="190" y="118" width="520" height="212" rx="18" fill="#D9E7EA"/>
  <rect x="218" y="144" width="464" height="160" rx="10" fill="#F5FBFC"/>
  <path d="M198 120C260 164 260 284 198 330V120Z" fill="#DDD0C6"/>
  <path d="M238 120C284 162 284 286 238 326V120Z" fill="#EFE5DD"/>
  <path d="M702 120C640 164 640 284 702 330V120Z" fill="#C7B4A2"/>
  <path d="M662 120C616 162 616 286 662 326V120Z" fill="#E8DDD1"/>
  <rect x="250" y="248" width="400" height="170" rx="26" fill="#DCC8B6"/>
  <rect x="318" y="182" width="264" height="110" rx="48" fill="#CFB29B"/>
  <circle cx="354" cy="236" r="8" fill="#EDE0D3"/>
  <circle cx="402" cy="236" r="8" fill="#EDE0D3"/>
  <circle cx="450" cy="236" r="8" fill="#EDE0D3"/>
  <circle cx="498" cy="236" r="8" fill="#EDE0D3"/>
  <circle cx="546" cy="236" r="8" fill="#EDE0D3"/>
  <rect x="292" y="302" width="94" height="34" rx="14" fill="#B58A68"/>
  <rect x="396" y="294" width="110" height="34" rx="14" fill="#9E7859"/>
  <rect x="520" y="302" width="86" height="34" rx="14" fill="#B58A68"/>
  <rect x="188" y="264" width="54" height="126" rx="14" fill="#594637"/>
  <rect x="658" y="264" width="54" height="126" rx="14" fill="#594637"/>
  <rect x="708" y="214" width="58" height="70" rx="28" fill="#7E6955"/>
  <rect x="134" y="214" width="58" height="70" rx="28" fill="#7E6955"/>
  <rect x="324" y="460" width="250" height="62" rx="20" fill="#F1E6D9"/>
  <rect x="352" y="510" width="18" height="88" rx="9" fill="#5D4938"/>
  <rect x="530" y="510" width="18" height="88" rx="9" fill="#5D4938"/>
</svg>
