<svg width="900" height="720" viewBox="0 0 900 720" fill="none" xmlns="http://www.w3.org/2000/svg">
  <rect width="900" height="720" fill="#EAF0EA"/>
  <rect x="0" y="0" width="900" height="450" fill="#DCE5DD"/>
  <rect y="448" width="900" height="272" fill="#AA8460"/>
  <g stroke="#916C4C" stroke-width="4">
    <path d="M0 502H900"/>
    <path d="M0 564H900"/>
    <path d="M0 626H900"/>
    <path d="M130 448L50 720"/>
    <path d="M290 448L210 720"/>
    <path d="M450 448L370 720"/>
    <path d="M610 448L530 720"/>
    <path d="M770 448L690 720"/>
  </g>
  <rect x="188" y="92" width="524" height="228" rx="18" fill="#A8B8A7"/>
  <rect x="230" y="120" width="440" height="176" rx="12" fill="#F2F6F3"/>
  <path d="M188 92C250 148 250 264 188 320V92Z" fill="#6E7C6C"/>
  <path d="M712 92C650 148 650 264 712 320V92Z" fill="#5F6D5D"/>
  <rect x="244" y="344" width="412" height="88" rx="28" fill="#8B9B89"/>
  <rect x="274" y="272" width="352" height="124" rx="50" fill="#6D7E6B"/>
  <rect x="320" y="364" width="104" height="34" rx="14" fill="#D8C3B1"/>
  <rect x="440" y="356" width="120" height="34" rx="14" fill="#E7D8C7"/>
  <rect x="228" y="290" width="56" height="112" rx="14" fill="#596755"/>
  <rect x="616" y="290" width="56" height="112" rx="14" fill="#596755"/>
  <rect x="224" y="402" width="18" height="84" rx="9" fill="#554233"/>
  <rect x="658" y="402" width="18" height="84" rx="9" fill="#554233"/>
  <rect x="348" y="470" width="204" height="54" rx="18" fill="#EFE2D5"/>
  <rect x="376" y="514" width="18" height="84" rx="9" fill="#584534"/>
  <rect x="506" y="514" width="18" height="84" rx="9" fill="#584534"/>
</svg>
