<svg width="900" height="720" viewBox="0 0 900 720" fill="none" xmlns="http://www.w3.org/2000/svg">
  <rect width="900" height="720" fill="#F7F1E8"/>
  <rect y="430" width="900" height="290" fill="#C79F78"/>
  <g stroke="#B1845F" stroke-width="4">
    <path d="M0 470H900"/>
    <path d="M0 530H900"/>
    <path d="M0 590H900"/>
    <path d="M0 650H900"/>
    <path d="M90 430L10 720"/>
    <path d="M240 430L160 720"/>
    <path d="M390 430L310 720"/>
    <path d="M540 430L460 720"/>
    <path d="M690 430L610 720"/>
    <path d="M840 430L760 720"/>
  </g>
  <rect x="70" y="70" width="330" height="220" rx="24" fill="#FBF8F4" stroke="#E9DCCB" stroke-width="8"/>
  <rect x="440" y="70" width="300" height="240" rx="20" fill="#D9E4DF"/>
  <rect x="470" y="94" width="240" height="168" rx="12" fill="#F5FAFD"/>
  <rect x="465" y="88" width="18" height="178" fill="#D2B79C"/>
  <rect x="698" y="88" width="18" height="178" fill="#D2B79C"/>
  <path d="M480 94C520 130 520 222 480 262V94Z" fill="#D8C0A7"/>
  <path d="M710 94C670 130 670 222 710 262V94Z" fill="#C7AA8B"/>
  <circle cx="570" cy="165" r="48" fill="#CFE1D8"/>
  <circle cx="600" cy="148" r="42" fill="#9AB29F"/>
  <circle cx="612" cy="184" r="36" fill="#7C947E"/>
  <rect x="110" y="268" width="250" height="120" rx="28" fill="#E8D6C3"/>
  <rect x="126" y="242" width="218" height="54" rx="22" fill="#D7B89D"/>
  <rect x="148" y="308" width="80" height="26" rx="13" fill="#B18A63"/>
  <rect x="242" y="308" width="76" height="26" rx="13" fill="#A47A52"/>
  <rect x="112" y="392" width="28" height="72" rx="10" fill="#6D5944"/>
  <rect x="330" y="392" width="28" height="72" rx="10" fill="#6D5944"/>
  <rect x="520" y="350" width="154" height="58" rx="20" fill="#F1E6D9"/>
  <rect x="546" y="392" width="18" height="86" rx="9" fill="#604B39"/>
  <rect x="630" y="392" width="18" height="86" rx="9" fill="#604B39"/>
  <circle cx="742" cy="346" r="48" fill="#B78B60"/>
  <rect x="732" y="392" width="20" height="80" rx="10" fill="#5E4A37"/>
  <rect x="686" y="252" width="110" height="18" rx="9" fill="#C9A37E"/>
  <rect x="118" y="98" width="170" height="16" rx="8" fill="#D3B291"/>
  <rect x="118" y="128" width="132" height="14" rx="7" fill="#E2C9AF"/>
</svg>
